# xmcd
#
# Track frame offsets: 
#        150
#        21331
#        30560
#        43296
#        54749
#        67329
#        99887
#        113245
#        152945
#        171047
#
# Disc length: 2426 seconds
#
# Revision: 1
# Processed by: cddbd v1.5.2PL0 Copyright (c) Steve Scherf et al.
# Submitted via: ExactAudioCopy v0.99pb4
#
DISCID=8909780a
DTITLE=Heron - Twice As Nice and Half The Price [SHM-CD]  1
DYEAR=1971
DGENRE=Folk/Rock
TTITLE0=Madman
TTITLE1=Take Me Back Home
TTITLE2=Love 13(Lone)
TTITLE3=Something Inside
TTITLE4=Miss Kiss
TTITLE5=John Brown
TTITLE6=Big A
TTITLE7=Winter Harlequin
TTITLE8=The Sound Of The Music
TTITLE9=Your Love And Mine
EXTD=YEAR: 1971
EXTT0=
EXTT1=
EXTT2=
EXTT3=
EXTT4=
EXTT5=
EXTT6=
EXTT7=
EXTT8=
EXTT9=
PLAYORDER=
